<svg width="17" height="10" viewBox="0 0 17 10" fill="none" xmlns="http://www.w3.org/2000/svg">
<path d="M16.1058 8.38343C16.0483 6.57989 15.3435 4.85729 14.1204 3.53062C12.8973 2.20396 11.2375 1.36187 9.44457 1.15835V1.11112C9.44457 0.816436 9.3275 0.533817 9.11913 0.325441C8.91075 0.117065 8.62813 0 8.33344 0C8.03876 0 7.75614 0.117065 7.54776 0.325441C7.33938 0.533817 7.22232 0.816436 7.22232 1.11112V1.15835C5.42937 1.36187 3.76959 2.20396 2.54646 3.53062C1.32334 4.85729 0.618608 6.57989 0.561131 8.38343C0.374926 8.44734 0.217464 8.57529 0.116809 8.74448C0.0161541 8.91367 -0.0211534 9.1131 0.0115357 9.30724C0.0442249 9.50137 0.144787 9.67759 0.295298 9.80449C0.445809 9.93138 0.63649 10.0007 0.833356 10.0001H15.8335C16.0304 10.0007 16.2211 9.93138 16.3716 9.80449C16.5221 9.67759 16.6227 9.50137 16.6554 9.30724C16.688 9.1131 16.6507 8.91367 16.5501 8.74448C16.4494 8.57529 16.292 8.44734 16.1058 8.38343ZM5.44174 2.78059L5.66952 3.28893C4.27739 3.92031 3.18485 5.06763 2.62227 6.48897L2.10282 6.28896C2.71896 4.73092 3.91608 3.47304 5.44174 2.78059ZM1.90837 6.86952L2.44171 7.01953C2.39449 7.19453 2.35282 7.37231 2.31948 7.55009L1.77226 7.45009C1.80776 7.25439 1.85319 7.06062 1.90837 6.86952ZM7.77788 1.11112C7.77832 0.963915 7.83699 0.822861 7.94109 0.718768C8.04518 0.614675 8.18623 0.556002 8.33344 0.555562C8.48045 0.556652 8.62113 0.615535 8.72508 0.719487C8.82903 0.82344 8.88792 0.964117 8.88901 1.11112V1.11946C8.79734 1.1139 8.70567 1.11112 8.61123 1.11112H8.05566C7.96122 1.11112 7.86955 1.1139 7.77788 1.11946V1.11112ZM15.8335 9.44456H0.833356C0.759684 9.44456 0.689029 9.41529 0.636935 9.3632C0.584841 9.3111 0.555575 9.24045 0.555575 9.16677C0.555575 9.0931 0.584841 9.02245 0.636935 8.97035C0.689029 8.91826 0.759684 8.88899 0.833356 8.88899H15.8335C15.9072 8.88899 15.9779 8.91826 16.03 8.97035C16.082 9.02245 16.1113 9.0931 16.1113 9.16677C16.1113 9.24045 16.082 9.3111 16.03 9.3632C15.9779 9.41529 15.9072 9.44456 15.8335 9.44456Z" fill="#62AC43"/>
</svg>
