<svg width="14" height="8" viewBox="0 0 14 8" fill="none" xmlns="http://www.w3.org/2000/svg">
<path d="M3.66667 4C4.58563 4 5.33333 3.25229 5.33333 2.33333C5.33333 1.41438 4.58563 0.666667 3.66667 0.666667C2.74771 0.666667 2 1.41438 2 2.33333C2 3.25229 2.74771 4 3.66667 4ZM11 1.33333H6.33333C6.14917 1.33333 6 1.4825 6 1.66667V4.66667H1.33333V0.333333C1.33333 0.149167 1.18417 0 1 0H0.333333C0.149167 0 0 0.149167 0 0.333333V7.66667C0 7.85083 0.149167 8 0.333333 8H1C1.18417 8 1.33333 7.85083 1.33333 7.66667V6.66667H12V7.66667C12 7.85083 12.1492 8 12.3333 8H13C13.1842 8 13.3333 7.85083 13.3333 7.66667V3.66667C13.3333 2.37792 12.2888 1.33333 11 1.33333Z" fill="#62AC43"/>
</svg>
