<svg width="14" height="14" viewBox="0 0 14 14" fill="none" xmlns="http://www.w3.org/2000/svg">
<path d="M0.874616 10.4956C0.875369 10.8627 0.953669 11.2256 1.10439 11.5605C1.25511 11.8953 1.47485 12.1945 1.74923 12.4386V13.5567C1.74923 13.6727 1.79531 13.7839 1.87732 13.8659C1.95933 13.9479 2.07056 13.994 2.18654 13.994H3.06116C3.17714 13.994 3.28837 13.9479 3.37038 13.8659C3.45239 13.7839 3.49847 13.6727 3.49847 13.5567V13.1194H10.4954V13.5567C10.4954 13.6727 10.5415 13.7839 10.6235 13.8659C10.7055 13.9479 10.8167 13.994 10.9327 13.994H11.8073C11.9233 13.994 12.0345 13.9479 12.1165 13.8659C12.1986 13.7839 12.2446 13.6727 12.2446 13.5567V12.4386C12.519 12.1945 12.7388 11.8953 12.8895 11.5605C13.0402 11.2256 13.1185 10.8627 13.1192 10.4956V9.18363H0.874616V10.4956ZM13.5566 6.99709H2.18654V1.89288C2.18679 1.77811 2.22102 1.66598 2.28492 1.57063C2.34882 1.47529 2.43953 1.40101 2.5456 1.35716C2.65166 1.3133 2.76834 1.30184 2.88091 1.32422C2.99349 1.3466 3.09691 1.40182 3.17814 1.48291L3.70482 2.00932C3.34595 2.82599 3.49683 3.6249 3.94042 4.18848L3.93577 4.19312C3.85407 4.27509 3.8082 4.3861 3.8082 4.50183C3.8082 4.61757 3.85407 4.72858 3.93577 4.81055L4.2449 5.11967C4.2855 5.16029 4.33372 5.19251 4.38678 5.21449C4.43984 5.23647 4.49672 5.24779 4.55415 5.24779C4.61159 5.24779 4.66847 5.23647 4.72153 5.21449C4.77459 5.19251 4.8228 5.16029 4.86341 5.11967L7.74336 2.23972C7.78398 2.19911 7.8162 2.1509 7.83818 2.09784C7.86017 2.04477 7.87148 1.9879 7.87148 1.93046C7.87148 1.87303 7.86017 1.81615 7.83818 1.76309C7.8162 1.71003 7.78398 1.66181 7.74336 1.6212L7.43424 1.31208C7.35224 1.23013 7.24105 1.1841 7.12512 1.1841C7.00919 1.1841 6.898 1.23013 6.81599 1.31208L6.81135 1.31673C6.24777 0.873133 5.44941 0.722262 4.63219 1.08113L4.10578 0.554445C3.84107 0.289711 3.50381 0.109422 3.13664 0.0363776C2.76946 -0.0366665 2.38887 0.000815971 2.04301 0.144085C1.69714 0.287353 1.40152 0.529973 1.19355 0.841258C0.985575 1.15254 0.874586 1.51851 0.874616 1.89288V6.99709H0.437308C0.321327 6.99709 0.210096 7.04316 0.128085 7.12517C0.0460734 7.20718 0 7.31841 0 7.4344L0 7.8717C0 7.98769 0.0460734 8.09892 0.128085 8.18093C0.210096 8.26294 0.321327 8.30901 0.437308 8.30901H13.5566C13.6725 8.30901 13.7838 8.26294 13.8658 8.18093C13.9478 8.09892 13.9939 7.98769 13.9939 7.8717V7.4344C13.9939 7.31841 13.9478 7.20718 13.8658 7.12517C13.7838 7.04316 13.6725 6.99709 13.5566 6.99709Z" fill="#62AC43"/>
</svg>
