<svg width="16" height="13" viewBox="0 0 16 13" fill="none" xmlns="http://www.w3.org/2000/svg">
<path d="M15.5644 3.88651C15.473 3.97787 15.349 4.02919 15.2197 4.02919C15.0904 4.02919 14.9664 3.97787 14.8749 3.88651C13.0109 2.02325 10.4833 0.976542 7.8477 0.976542C5.21214 0.976542 2.68447 2.02325 0.820491 3.88651C0.728004 3.97269 0.605677 4.01961 0.479281 4.01738C0.352885 4.01515 0.232288 3.96394 0.142899 3.87455C0.0535096 3.78516 0.00230612 3.66457 7.60109e-05 3.53817C-0.0021541 3.41178 0.0447632 3.28945 0.130944 3.19696C2.17802 1.14998 4.95439 0 7.84932 0C10.7443 0 13.5206 1.14998 15.5677 3.19696C15.6586 3.28887 15.7094 3.41312 15.7088 3.54241C15.7082 3.6717 15.6562 3.79546 15.5644 3.88651Z" fill="#62AC43"/>
<path d="M13.5381 5.22027C13.6243 5.31276 13.6712 5.43508 13.669 5.56148C13.6667 5.68788 13.6155 5.80847 13.5261 5.89786C13.4367 5.98725 13.3162 6.03845 13.1898 6.04068C13.0634 6.04291 12.941 5.996 12.8485 5.90982C12.1921 5.25208 11.4123 4.73027 10.5539 4.37424C9.69554 4.0182 8.77537 3.83494 7.84607 3.83494C6.91678 3.83494 5.99661 4.0182 5.13822 4.37424C4.27984 4.73027 3.50009 5.25208 2.8436 5.90982C2.75046 5.98997 2.6305 6.03202 2.50769 6.02757C2.38489 6.02312 2.26829 5.9725 2.18119 5.88581C2.09409 5.79912 2.04292 5.68276 2.03788 5.55998C2.03285 5.4372 2.07434 5.31704 2.15405 5.22352C2.90113 4.47531 3.7884 3.88173 4.76509 3.47673C5.74178 3.07174 6.78874 2.86328 7.84607 2.86328C8.90341 2.86328 9.95036 3.07174 10.9271 3.47673C11.9038 3.88173 12.791 4.47531 13.5381 5.22352V5.22027Z" fill="#62AC43"/>
<path d="M11.5183 7.24326C11.6045 7.33574 11.6514 7.45807 11.6492 7.58447C11.6469 7.71086 11.5957 7.83146 11.5063 7.92085C11.4169 8.01024 11.2963 8.06144 11.17 8.06367C11.0436 8.0659 10.9212 8.01898 10.8287 7.9328C10.0365 7.14527 8.96482 6.70323 7.84775 6.70323C6.73068 6.70323 5.65899 7.14527 4.86676 7.9328C4.77427 8.01898 4.65194 8.0659 4.52555 8.06367C4.39915 8.06144 4.27855 8.01024 4.18916 7.92085C4.09977 7.83146 4.04857 7.71086 4.04634 7.58447C4.04411 7.45807 4.09103 7.33574 4.17721 7.24326C4.65909 6.76038 5.23147 6.37729 5.86159 6.1159C6.49171 5.85451 7.16719 5.71997 7.84937 5.71997C8.53156 5.71997 9.20704 5.85451 9.83716 6.1159C10.4673 6.37729 11.0397 6.76038 11.5215 7.24326H11.5183Z" fill="#62AC43"/>
<path d="M7.8461 8.58008C7.50708 8.58008 7.17568 8.68061 6.89379 8.86896C6.61191 9.05731 6.39221 9.32502 6.26247 9.63823C6.13273 9.95144 6.09879 10.2961 6.16493 10.6286C6.23106 10.9611 6.39432 11.2665 6.63404 11.5062C6.87376 11.746 7.17919 11.9092 7.51169 11.9754C7.8442 12.0415 8.18885 12.0076 8.50206 11.8778C8.81528 11.7481 9.08298 11.5284 9.27133 11.2465C9.45968 10.9646 9.56021 10.6332 9.56021 10.2942C9.56021 9.83958 9.37962 9.40359 9.05816 9.08213C8.7367 8.76067 8.30071 8.58008 7.8461 8.58008ZM7.8461 11.0325C7.70007 11.0325 7.55732 10.9892 7.4359 10.9081C7.31448 10.827 7.21985 10.7117 7.16397 10.5767C7.10808 10.4418 7.09346 10.2934 7.12195 10.1501C7.15044 10.0069 7.22076 9.87537 7.32402 9.77211C7.42728 9.66885 7.55883 9.59853 7.70206 9.57004C7.84528 9.54155 7.99374 9.55617 8.12865 9.61206C8.26356 9.66794 8.37888 9.76257 8.46 9.88399C8.54113 10.0054 8.58444 10.1482 8.58444 10.2942C8.58444 10.49 8.50665 10.6778 8.36818 10.8163C8.22972 10.9547 8.04192 11.0325 7.8461 11.0325Z" fill="#62AC43"/>
</svg>
