<svg width="133" height="21" viewBox="0 0 133 21" fill="none" xmlns="http://www.w3.org/2000/svg">
<path d="M44.5627 0H49.2423V19.6634H44.5627V0Z" fill="#313131"/>
<path d="M53.4185 8.40089H51.1592V5.37199H53.4185C53.4185 1.26651 54.8517 0 58.8476 0C59.5879 0 60.3595 0.0545851 61.1032 0.0823289V3.38731C60.6647 3.33047 60.2533 3.30464 59.8382 3.30464C58.7648 3.30464 58.1034 3.44212 58.1034 4.73615V5.37199H60.9113V8.40089H58.1034V19.6634H53.4185V8.40089Z" fill="#313131"/>
<path d="M74.0245 14.9527C74.0245 15.6692 74.3256 16.1902 74.7956 16.5511C75.2341 16.883 75.8686 17.0479 76.5302 17.0479C77.4384 17.0479 78.731 16.6604 78.731 15.5322C78.731 14.4325 77.271 14.209 76.4482 14.0136C73.4996 13.2741 69.8109 13.1916 69.8109 9.33488C69.8109 5.89287 73.5265 4.95703 76.338 4.95703C79.4753 4.95703 82.7525 5.86727 82.9165 9.58186H78.594C78.594 8.97838 78.3748 8.59279 77.9869 8.34434C77.6031 8.09578 77.0787 7.98604 76.499 7.98604C75.7316 7.98604 74.4902 8.06849 74.4902 9.06049C74.4902 10.408 77.6306 10.6586 79.7801 11.1243C82.6703 11.704 83.4138 13.7978 83.4138 14.9804C83.4138 18.81 79.78 20.0746 76.5574 20.0746C73.1706 20.0746 69.7013 18.9466 69.5604 14.9527H74.0245Z" fill="#313131"/>
<path d="M85.0989 0H89.782V7.32442H89.8372C90.5535 5.86732 92.4802 4.95708 94.1873 4.95708C98.9528 4.95708 99.3368 8.42638 99.3368 10.4937V19.6634H94.6573V12.751C94.6573 10.7952 94.8769 8.8105 92.3157 8.8105C90.5534 8.8105 89.782 10.3002 89.782 11.8685V19.6634H85.0989V0Z" fill="#313131"/>
<path d="M105.651 13.6607C105.733 15.615 106.864 16.9108 108.849 16.9108C109.973 16.9108 111.077 16.3826 111.516 15.3402H115.898C115.044 18.6453 111.986 20.0746 108.791 20.0746C104.139 20.0746 100.968 17.2672 100.968 12.475C100.968 8.09578 104.468 4.95703 108.681 4.95703C113.803 4.95703 116.364 8.81046 116.145 13.6607H105.651ZM111.462 11.0423C111.379 9.44472 110.252 8.12454 108.681 8.12454C107.029 8.12454 105.928 9.30905 105.651 11.0423H111.462Z" fill="#313131"/>
<path d="M118.056 5.37192H122.602V7.87459H122.657C123.346 6.061 124.944 5.09595 126.953 5.09595C127.312 5.09595 127.696 5.12155 128.056 5.20376V9.47402C127.449 9.30914 126.898 9.19771 126.263 9.19771C123.953 9.19771 122.74 10.7951 122.74 12.5856V19.6634H118.056V5.37192Z" fill="#313131"/>
<path d="M63.0957 5.37196H67.7787V19.6634H63.0957V5.37196ZM67.762 0.0737305H63.0922V3.38728H67.762V0.0737305Z" fill="#313131"/>
<path d="M132.321 19.6533H127.652V16.338H132.321V19.6533Z" fill="#313131"/>
<path d="M4.74283 13.6607C4.82493 15.615 5.95633 16.9108 7.93808 16.9108C9.06914 16.9108 10.1696 16.3826 10.6087 15.3402H14.9863C14.1362 18.6453 11.0783 20.0746 7.88327 20.0746C3.23081 20.0746 0.0634155 17.2672 0.0634155 12.475C0.0634155 8.09578 3.5599 4.95703 7.77342 4.95703C12.8954 4.95703 15.4561 8.81046 15.2366 13.6607H4.74283ZM10.5536 11.0423C10.4714 9.44472 9.34364 8.12454 7.77342 8.12454C6.12076 8.12454 5.02038 9.30905 4.74283 11.0423H10.5536Z" fill="#313131"/>
<path d="M26.1762 19.6634C26.0114 19.2212 25.9567 18.7794 25.9019 18.3125C24.6883 19.5811 22.8987 20.0746 21.1949 20.0746C18.4658 20.0746 16.3198 18.6966 16.3198 15.7518C16.3198 11.097 21.3833 11.4592 24.6367 10.7951C25.4322 10.6309 25.8744 10.355 25.8744 9.47393C25.8744 8.40084 24.5786 7.98604 23.6152 7.98604C22.3228 7.98604 21.4966 8.5637 21.2735 9.77539H16.8957C16.9778 7.9018 17.8591 6.68999 19.1275 5.94937C20.3959 5.233 22.045 4.95703 23.6701 4.95703C27.0606 4.95703 30.3344 5.69934 30.3344 9.7481V19.6634H26.1762ZM22.9568 17.1847C25.1853 17.1847 25.9292 15.9163 25.8196 12.9708C25.158 13.3836 23.9477 13.466 22.9293 13.7426C21.8803 13.9896 20.9994 14.4325 20.9994 15.5596C20.9994 16.715 21.908 17.1847 22.9568 17.1847Z" fill="#313131"/>
<path d="M32.807 5.37192H37.3529V7.87459H37.4042C38.0935 6.061 39.6911 5.09595 41.7002 5.09595C42.0599 5.09595 42.4441 5.12155 42.8037 5.20376V9.47402C42.1973 9.30914 41.6454 9.19771 41.0144 9.19771C38.7001 9.19771 37.4868 10.7951 37.4868 12.5856V19.6634H32.807V5.37192Z" fill="#313131"/>
</svg>
