<svg width="15" height="17" viewBox="0 0 15 17" fill="none" xmlns="http://www.w3.org/2000/svg">
<path d="M10.1762 15.6634C10.0114 15.2212 9.95671 14.7794 9.9019 14.3125C8.68829 15.5811 6.89871 16.0746 5.19485 16.0746C2.46583 16.0746 0.319763 14.6966 0.319763 11.7518C0.319763 7.09705 5.38331 7.45918 8.63675 6.79514C9.43218 6.63093 9.87438 6.35496 9.87438 5.47393C9.87438 4.40084 8.57855 3.98604 7.6152 3.98604C6.32275 3.98604 5.49665 4.5637 5.27346 5.77539H0.895724C0.977827 3.9018 1.85908 2.68999 3.1275 1.94937C4.39593 1.233 6.04498 0.957031 7.67012 0.957031C11.0606 0.957031 14.3344 1.69934 14.3344 5.7481V15.6634H10.1762ZM6.95679 13.1847C9.1853 13.1847 9.92919 11.9163 9.81957 8.97075C9.15801 9.38364 7.94767 9.46596 6.92928 9.74261C5.88032 9.9896 4.99941 10.4325 4.99941 11.5596C4.99941 12.715 5.90795 13.1847 6.95679 13.1847Z" fill="#313131"/>
</svg>
